<?xml version="1.0" standalone="no"?>
<!DOCTYPE svg PUBLIC "-//W3C//DTD SVG 20010904//EN"
 "http://www.w3.org/TR/2001/REC-SVG-20010904/DTD/svg10.dtd">
<svg version="1.0" xmlns="http://www.w3.org/2000/svg"
 width="400.000000pt" height="400.000000pt" viewBox="0 0 400.000000 400.000000"
 preserveAspectRatio="xMidYMid meet">
<metadata>
Created by potrace 1.11, written by Peter Selinger 2001-2013
</metadata>
<g transform="translate(0.000000,400.000000) scale(0.100000,-0.100000)"
fill="#000000" stroke="none">
<path d="M2658 3566 c-27 -7 -48 -11 -48 -8 0 2 -6 0 -12 -6 -7 -5 -26 -13
-43 -16 -16 -3 -39 -8 -50 -11 -11 -2 -33 -8 -50 -14 -47 -15 -156 -35 -204
-37 -47 -2 -111 14 -111 28 0 4 -5 8 -12 8 -6 0 -19 7 -29 16 -31 28 -78 -2
-50 -31 15 -16 139 -247 233 -435 51 -101 163 -218 228 -240 22 -7 40 -16 40
-20 0 -4 25 -19 55 -35 59 -29 62 -34 43 -68 -19 -37 -18 -129 4 -156 10 -13
18 -29 18 -36 0 -21 -77 4 -139 46 -67 44 -90 68 -167 176 -79 110 -77 106
-153 220 -36 56 -100 138 -141 183 -41 46 -84 93 -95 105 -73 82 -217 160
-339 184 -206 41 -270 44 -441 16 -92 -15 -198 -68 -258 -128 -11 -11 -49 -40
-84 -63 -62 -42 -92 -52 -158 -57 -18 -2 -30 -8 -30 -16 0 -8 14 -21 30 -30
64 -35 132 -80 166 -112 46 -44 179 -224 179 -244 0 -8 11 -38 24 -65 l24 -50
-48 4 c-61 4 -76 -4 -61 -32 22 -40 8 -54 -64 -67 -22 -4 -49 -9 -60 -11 -62
-10 -100 -13 -195 -15 -66 -1 -133 -8 -180 -21 -95 -24 -160 -48 -160 -59 0
-5 -6 -9 -14 -9 -8 0 -63 -47 -123 -105 -59 -58 -125 -113 -146 -122 -20 -9
-36 -21 -34 -27 2 -5 28 -15 58 -21 54 -11 106 -34 131 -57 7 -7 45 -33 83
-57 39 -24 86 -55 105 -67 19 -13 69 -39 110 -58 104 -48 194 -55 314 -27 49
12 91 20 93 18 2 -3 -12 -29 -32 -58 -34 -51 -48 -87 -59 -154 -3 -16 -8 -41
-11 -55 -10 -49 -16 -85 -25 -155 -15 -104 -20 -131 -46 -235 -13 -52 -24
-101 -24 -108 0 -8 -9 -26 -19 -41 -25 -35 -14 -54 26 -46 17 2 80 7 139 10
60 3 135 7 168 10 l58 6 -29 -43 c-100 -145 -183 -306 -208 -403 -21 -82 -10
-109 33 -86 39 21 235 30 372 17 159 -16 248 -17 290 -6 25 7 55 14 68 16 40
8 150 52 199 80 97 56 270 190 359 279 22 22 50 46 62 54 11 8 23 25 27 38 4
16 12 23 23 21 9 -1 22 1 28 4 6 4 35 -8 64 -27 29 -19 57 -32 61 -29 4 2 6
19 5 38 -3 31 -1 34 46 52 27 10 59 29 70 41 12 13 25 23 30 23 17 0 73 74 92
119 23 58 37 132 38 196 0 50 0 50 31 49 36 -1 38 -14 7 -74 -9 -19 -23 -60
-30 -90 -7 -30 -16 -59 -20 -65 -9 -13 -19 -55 -26 -108 -3 -23 -9 -64 -14
-92 -6 -27 -12 -86 -16 -129 -9 -124 -79 -321 -151 -422 -43 -62 -44 -80 -3
-82 8 0 42 -4 75 -8 68 -8 58 -8 220 -1 150 8 162 10 254 53 62 29 92 52 171
132 95 96 180 211 180 244 0 9 4 18 8 20 10 4 50 129 57 178 2 19 9 62 14 95
25 160 -32 552 -92 640 -12 16 -46 107 -53 138 -1 4 -3 10 -4 15 -1 4 -2 10
-1 14 0 4 -4 20 -10 34 -5 15 -10 64 -10 107 0 70 4 88 31 144 34 69 51 81 24
18 -15 -37 -15 -60 -1 -210 2 -22 13 -58 25 -80 26 -51 110 -129 155 -144 27
-9 36 -19 41 -41 7 -37 28 -38 60 -4 l24 27 18 -22 c22 -27 69 -53 78 -44 3 4
6 21 6 38 0 31 20 61 33 49 3 -3 15 1 27 9 20 14 26 14 67 -4 25 -10 49 -19
54 -19 11 0 7 26 -11 62 -11 24 -10 33 13 80 35 74 43 153 20 226 -23 77 -51
119 -114 175 -50 45 -52 47 -35 65 19 22 35 69 43 126 8 57 -28 209 -73 311
-33 76 -120 222 -149 250 -14 14 -25 29 -25 33 0 24 -177 199 -245 243 -33 21
-66 44 -74 51 -8 7 -20 13 -27 14 -6 1 -45 19 -85 39 l-74 38 -195 3 c-141 3
-208 0 -242 -10z m871 -756 c69 -35 114 -70 127 -98 52 -116 43 -187 -27 -221
-28 -14 -41 -15 -55 -8 -11 6 -26 12 -34 13 -8 1 -51 10 -95 19 -44 8 -105 18
-135 21 -30 2 -68 7 -85 9 -16 3 -55 8 -85 11 -30 4 -58 11 -61 16 -4 6 -1 29
6 53 10 31 10 46 2 54 -6 6 -8 11 -4 11 4 0 1 13 -7 29 l-15 28 42 13 c23 8
55 20 70 27 48 24 199 51 260 47 31 -2 75 -13 96 -24z m-385 -537 c-8 -32 -19
-81 -25 -110 -10 -43 -14 -50 -28 -43 -9 5 -24 11 -34 14 -12 4 -15 10 -10 18
14 22 30 97 23 108 -4 6 -24 -1 -52 -19 -40 -26 -48 -28 -59 -15 -9 11 -7 18
10 33 12 10 36 24 54 31 17 7 41 16 52 20 20 9 50 17 72 19 8 1 7 -15 -3 -56z
m-55 -217 c-7 -19 -16 -33 -20 -30 -10 6 -6 25 11 51 20 31 24 21 9 -21z"/>
</g>
</svg>
