<svg xmlns="http://www.w3.org/2000/svg" xmlns:xlink="http://www.w3.org/1999/xlink" viewBox="0 0 957 556"><defs><style>.cls-1,.cls-2,.cls-3,.cls-4,.cls-5{stroke:#000;stroke-miterlimit:10;stroke-width:5px;}.cls-1{fill:url(#radial-gradient);}.cls-2{fill:#59b155;}.cls-3{fill:#2a709e;}.cls-4{fill:#572a9e;}.cls-5{fill:#2e3191;}</style><radialGradient id="radial-gradient" cx="480" cy="279.5" r="388.89" gradientUnits="userSpaceOnUse"><stop offset="0.15" stop-color="#fff"/><stop offset="0.18" stop-color="#fff6ed"/><stop offset="0.24" stop-color="#ffdfbd"/><stop offset="0.31" stop-color="#ffca92"/><stop offset="0.38" stop-color="#ffb96e"/><stop offset="0.45" stop-color="#ffab51"/><stop offset="0.53" stop-color="#ffa03a"/><stop offset="0.61" stop-color="#ff982a"/><stop offset="0.7" stop-color="#ff9321"/><stop offset="0.83" stop-color="#ff921e"/></radialGradient></defs><g id="Layer_1" data-name="Layer 1"><path class="cls-1" d="M419.71,555h-7.94c-13.52-9.19-16-19.92-7.91-35,3.05-5.69,5.5-11.6,5.64-18.4.18-8.22-1.93-9.8-8.35-6.26-2.13,1.18-4.16,2.64-6.46,3.41-4.23,1.41-8.42,1.74-11.94-2s-3.55-8.51-2.29-13.3a90.76,90.76,0,0,1,5.7-15.73c2.66-5.62,2.53-10.76-1.05-15.81-4.45-6.28-4.13-13-1.85-20.29,4.27-13.66-5.06-29.13-17.9-30-4.49-.32-9,0-13.48-.14-12-.35-16.82-7.52-13.72-20.43.42-1.73,1-3.41,1.25-5.18,2.52-16.58-4.94-26.64-19.82-26.24-9,.23-17.84,1.93-26.87,1.85-12.72-.12-25.35-.35-37.88-3.22A56,56,0,0,0,238.28,347c-6.84.48-12.95-2.29-18.07-7.63-4.51-4.7-9.46-8.84-15.32-10.93-29.7-10.61-58.12-25.87-88.49-33.66-20.64-5.3-39.28-17-60.39-20.65-13-2.25-14.83-7.73-12.35-22.11,2-11.79-3-21.14-13.18-24.84-5.79-2.1-11.75-3.54-17.45-6C8.6,219.34,5.2,216.45,4,211v-3.58c4.35-8.49,11.91-11.4,19.49-14.11,8.6-3.08,17.6-4.12,26.4-6.14,10.25-2.34,18.68-7.95,25.76-16.48a124.63,124.63,0,0,1,15.57-15.18c9.72-8.26,20.46-9.84,31.6-6.38,14.89,4.63,28.29.53,41.18-7.27,9.48-5.74,19.41-10.8,25.91-21.49,2.81-4.62,7.84-5.76,12.82-5.69,10.36.13,17.89-4.4,21.12-16.2a25.12,25.12,0,0,1,3-6.3c1.33-2.2,31.32-31.19,33.68-32,10.1-3.41,17.27-11.35,24-19.79,9.26-11.56,19.29-21.36,34-22.22a6.76,6.76,0,0,0,4.34-2.07c14.52-15,32.42-11.93,49.69-11.71,3.65,0,7.38.32,11.05.68,4.42.43,7.75,2.85,8.32,8,.6,5.34-2.47,8.92-6.71,9.45-11,1.38-19.05,7.06-27.71,15.36-10.08,9.67-20,20-31.19,28.52-5.52,4.23-6.35,13.36-10.18,19.78-1.9,3.18-3,6.93-6.12,9a5.41,5.41,0,0,0-2.3,2.41c-7.17,20.56-23.95,37.33-19.46,62.53.25,1.41-.37,2.94.58,6.86,3.23-13.08,12-18.93,18.09-27.27,5.48-7.47,12.61-11.63,19.44-16.6,2.53-1.84,5.9-2.87,7.72.71s-1,6.18-3.4,8c-4.39,3.36-9.76,5.53-10.61,12.94,5.95-15.8,18-13,29.06-12.34a67.06,67.06,0,0,1,11,1.7c8.27,1.9,9,3.51,6.15,13,3-2.24,2.44-9.79,5.66-8.32,5.71,2.6,10.36-1.56,15.5-.66,3.87.68,6.2,3.47,7.5,7.16,2.06,5.87,5.45,9.28,11.13,9.8,4.58.43,7.09,3.7,8,8.55,1,5.28,5.06,8.22,7.2,12.31,6.07,11.6,16.07,19.29,22.25,30.58a27.08,27.08,0,0,1,3.19,10.06c.89,8.16,5.67,10.91,12,11.56,11.7,1.2,22.56-2,32.74-8.33,9.71-6,11.62-5.45,16.61,5.65,3.12,6.93,13.46,8.28,18.28,2.38,6.65-8.12,6.65-8.12,14.42-1.09,1,.93,2.07,1.85,3.13,2.75,7.47,6.3,8.56,5.94,13.33-2.84,6.34-11.67,15.77-19.24,26.17-26,9.73-6.36,20.12-12.1,27.67-22,3.52-4.6,7.84-5.18,12.68-5.9,25.7-3.78,51.65-2.58,77.4-5.22a63.73,63.73,0,0,0,33.34-13.07c9.48-7.37,19.79-11.07,31.34-10.33a32.89,32.89,0,0,0,11.76-1.53c7.92-2.42,10.75.4,8.52,9.53a152.87,152.87,0,0,0-4.21,42.49c.42,10.91,2.73,13.65,12.37,14,7,.28,14.15-1,20.74,3.78,2.79,2,6.12-.59,8.85-2.43,3-2,5.52-4.63,8.5-6.58,7.58-5,13.7-3.3,16.59,5.78,2.24,7.07,4.6,6.85,9.72,3.56,7.36-4.73,11.69-13.26,19.46-17.69,4.93-2.8,8-2.9,10.59,1.91,2.29,4.2,15.81,38,25.74,54.53,2.65,4.42,7-1.95,8,2,.57,2.18,2.3,4.68,1,6-3.91,4-17,1.75-17,2,.39,2.33,4.25,4.1,6,4,7.71-.44,12.24,7.83,19.54,8.83,3.12.42,2.68,3.87,1.29,6.47-2.37,4.47-.43,7.36,2.77,9.67,5.28,3.82,9.59,9.56,16.42,10.28,1.71.19,2.59,1.92,3.48,3.42v5.37c-1.89,4.33-4.83,6.11-9.08,4.88-1.54-.45-3.35-1-4.59.26-4.26,4.3-8,2.95-12-.63-2.79-2.52-6.07-1.95-9-.18-5,3-9.8,3-15.23,1-8.46-3.07-11.74-.75-14.5,8.87-1,3.52-3.32,3.56-5.71,2.9-2.87-.79-6.23-2-5-6.4,2.73-9.56-2-7.73-6.82-6.1-2.59.87-5.66,1.88-7.67-.07-4.37-4.25-9.43-3.74-14.52-4.84-6.27-1.35-7.08,1.09-8.79,6.83-2.7,9-1.48,17.65-.23,26.44.53,3.72,2.88,7.67-1.07,10.49-3.62,2.58-7.61,2.11-11.42.29a13,13,0,0,1-5-4.38c-5.61-8.16-13.83-12.8-20.52-19.52s-7-7.68,1.6-12c-10.82-.32-21.28-1.56-30.86-7.48a13,13,0,0,0-7.73-1.63c-6.75.4-12.93-1.45-19.18-4.42-12.86-6.12-30.29.66-37.83,14.06-6.81,12.11-15.73,19.14-29.15,15.84-4.4-1.08-8.33.59-11.86,3.65-3,2.58-6.22,4.6-10.13,4.5-3.48-.08-6.55-1-6-6,.49-4.74-1.27-5.14-4.56-3.43-8.21,4.25-16.86,6.59-25.8,8.11-9.6,1.64-17.07,9.66-17.8,20.62-1.07,16.06-10.68,23.52-21.73,28.89-7,3.39-11.33,8.74-14,15.85-1.74,4.7-4.42,8.81-5.8,13.66-1.2,4.19-3.92,4.43-7,2.75a16.64,16.64,0,0,1-7.52-8.85c-2.05-5.25,1.74-6.61,4.46-8.83,2.26-1.84,2.79-5,3.92-7.66,1.92-4.56,3.32-9.51,8-11.69a4.5,4.5,0,0,0,2.51-4.26c-.1-5.31,1.79-9.83,4-14.33.92-1.9,1.33-4.2-.73-5.53-1.57-1-3,.13-4.25,1.39-1.75,1.82-3,4.14-4.75,6-5.6,6.07-10.37,7.2-17.09,2.76-5.13-3.39-6.64-1.64-6.5,4.23.26,11.51-7.63,18.69-12.16,27.43-2.55,4.92-9.59,5-14.76,3.43-4.87-1.48-3.78-7.09-4.14-11.43-.7-8.66-1.31-17.18,3.63-24.93,1.41-2.22,1.86-5.59-1.24-9-4.6,8.58-10,17.27-10.39,26.46-.54,13.05-6.51,20.94-14.21,28.47-9.72,9.49-14,22.54-18.08,35.57-4.35,13.75-8,27.79-15.25,40.11-3.52,6-6.59,12.18-7.71,19.44a25.88,25.88,0,0,1-4.66,11.27c-6.87,9.45-14,18.65-18.05,30.28C421.75,553.84,420.53,554.26,419.71,555Z" transform="translate(-1.5 -1.5)"/></g><g id="Layer_4" data-name="Layer 4"><path class="cls-2" d="M510.54,139C477,174.54,480.06,239.53,480.06,239.53s62.69,1.63,96.2-33.95,25.14-94.9,25.14-94.9S544.05,103.38,510.54,139Z" transform="translate(-1.5 -1.5)"/><path class="cls-2" d="M411,380.93c41.1-24.64,60-80.23,60-80.23S416.66,289,375.56,313.65,322.12,390,322.12,390,369.86,405.58,411,380.93Z" transform="translate(-1.5 -1.5)"/><path class="cls-2" d="M364,284.42c-49.35-20.11-77.52-89-77.52-89s59.71-33.09,109.06-13,69.66,85.8,69.66,85.8S413.32,304.52,364,284.42Z" transform="translate(-1.5 -1.5)"/></g><g id="Layer_3" data-name="Layer 3"><ellipse class="cls-3" cx="572.07" cy="327.29" rx="46.11" ry="47.32"/><ellipse class="cls-3" cx="463.58" cy="132.19" rx="50.18" ry="47.96"/><ellipse class="cls-4" cx="441.21" cy="354.51" rx="67.13" ry="64.17"/><ellipse class="cls-4" cx="558.51" cy="254.05" rx="59.67" ry="57.04"/><ellipse class="cls-4" cx="408.66" cy="180.81" rx="60.35" ry="57.69"/><ellipse class="cls-5" cx="392.39" cy="271.55" rx="65.77" ry="62.87"/><ellipse class="cls-5" cx="507.66" cy="303.31" rx="71.2" ry="71.3"/><ellipse class="cls-5" cx="483.92" cy="193.12" rx="74.59" ry="67.41"/></g></svg>